<?xml version="1.0" encoding="utf-8"?>
<!-- Generator: Adobe Illustrator 16.0.0, SVG Export Plug-In . SVG Version: 6.00 Build 0)  -->
<!DOCTYPE svg PUBLIC "-//W3C//DTD SVG 1.1//EN" "http://www.w3.org/Graphics/SVG/1.1/DTD/svg11.dtd">
<svg version="1.1" id="Layer_1" xmlns="http://www.w3.org/2000/svg" xmlns:xlink="http://www.w3.org/1999/xlink" x="0px" y="0px"
	 width="166px" height="21px" viewBox="0 0 166 21" enable-background="new 0 0 166 21" xml:space="preserve">
<g>
	<path fill="#DDD4BB" d="M12.248,13.875c0,2.414-0.387,3.695-1.549,4.917C9.565,19.984,7.838,20.7,6.079,20.7
		c-1.519,0-3.158-0.566-4.291-1.491c-0.834-0.655-1.162-1.101-1.758-2.323L4.203,14.8c0.447,1.014,0.953,1.399,1.788,1.399
		c0.655,0,1.221-0.327,1.43-0.864c0.148-0.416,0.178-0.774,0.178-2.234V0.466h4.648V13.875z"/>
	<path fill="#DDD4BB" d="M24.194,20.759c-6.019,0-10.639-4.529-10.639-10.399c0-5.81,4.59-10.28,10.549-10.28
		c5.99,0,10.638,4.529,10.638,10.37S30.183,20.759,24.194,20.759z M24.134,4.28c-3.367,0-5.989,2.652-5.989,6.049
		c0,3.457,2.711,6.228,6.049,6.228c3.308,0,5.93-2.712,5.93-6.168C30.124,6.903,27.561,4.28,24.134,4.28z"/>
	<path fill="#DDD4BB" d="M52.794,20.341h-4.678v-8.462h-7.419v8.462h-4.679V0.466h4.679v7.271h7.419V0.466h4.678V20.341z"/>
	<path fill="#DDD4BB" d="M72.962,20.341H68.73L59.404,8.333v12.007h-4.678V0.466h4.231l9.326,12.158V0.466h4.679V20.341z"/>
	<path fill="#DDD4BB" d="M85.261,16.141h7.63v4.2H80.583V0.466h4.678V16.141z"/>
	<path fill="#DDD4BB" d="M98.786,20.341h-4.649V0.466h4.649V20.341z"/>
	<path fill="#DDD4BB" d="M108.677,9.972l9.745,10.369h-6.407l-6.438-7.479v7.479h-4.618V0.466h4.618V7.41l6.438-6.943h5.869
		L108.677,9.972z"/>
	<path fill="#DDD4BB" d="M131.05,4.4h-7.688v3.367h6.079v3.993h-6.079v4.5h8.314v4.081h-13.053V0.466h12.427V4.4z"/>
	<path fill="#DDD4BB" d="M151.07,20.341h-4.231l-9.327-12.007v12.007h-4.678V0.466h4.231l9.326,12.158V0.466h4.679V20.341z"/>
	<path fill="#DDD4BB" d="M160.838,5.502c-0.416-1.192-1.013-1.669-2.115-1.669c-1.014,0-1.759,0.656-1.759,1.52
		c0,0.954,0.775,1.609,2.892,2.473c0.834,0.328,1.341,0.537,1.461,0.596c0.535,0.208,1.07,0.506,1.638,0.864
		c1.787,1.192,2.802,3.009,2.802,5.065c0,3.695-3.069,6.406-7.242,6.406c-2.979,0-5.064-1.311-6.793-4.32l3.636-2.384
		c0.834,1.668,1.906,2.503,3.246,2.503c1.253,0,2.235-0.954,2.235-2.176c0-0.953-0.685-1.638-2.531-2.532
		c-0.984-0.447-1.521-0.715-1.609-0.745c-0.566-0.298-1.163-0.656-1.728-1.103c-1.611-1.251-2.415-2.771-2.415-4.53
		c0-3.158,2.593-5.393,6.258-5.393c2.712,0,4.559,1.073,5.633,3.248L160.838,5.502z"/>
</g>
</svg>
